<?xml version="1.0" encoding="UTF-8"?>
<svg width="119px" height="24px" viewBox="0 0 119 24" version="1.1" xmlns="http://www.w3.org/2000/svg" xmlns:xlink="http://www.w3.org/1999/xlink">
    <title>screenshots.yellow.pill.stroke</title>
    <defs>
        <path d="M0,0 L119,0 L119,24 L0,24 L0,0 Z" id="path-1"></path>
        <path d="M0,0 L119,0 L119,24 L0,24 L0,0 Z" id="path-2"></path>
    </defs>
    <g id="screenshots.yellow.pill.stroke" stroke="none" fill="none" xlink:href="#path-1">
        <g id="framed-label" xlink:href="#path-2">
            <rect id="pill-stroke" stroke="color(display-p3 0.776 0.647 0.220)" stroke-width="1" fill-opacity="0.198089001" fill="color(display-p3 0.000 0.000 0.000)" fill-rule="evenodd" x="0.5" y="0.5" width="117" height="23" rx="11.5"></rect>
            <path d="M21.3181821,17.1781818 C23.7363641,17.1781818 24.5890914,16.3127272 24.5890914,14.0599998 C24.5890914,12.303636 23.7745459,11.6545451 21.4327276,10.9290905 C20.0454547,10.4963632 19.7018183,10.3436359 19.7018183,9.46545401 C19.7018183,8.30727211 19.9945456,7.98909027 21.3181821,7.98909027 C22.7309095,7.98909027 23.0236368,8.26909029 23.4690913,9.40181764 L24.5127278,8.26909029 C23.8636368,7.04727202 23.0618186,6.63999927 21.3181821,6.63999927 C19.0527274,6.63999927 18.2381819,7.42909023 18.2381819,9.46545401 C18.2381819,11.0054541 18.989091,11.5781814 21.1909094,12.303636 C22.7181822,12.812727 23.1254549,13.0290906 23.1254549,14.0599998 C23.1254549,15.4345453 22.756364,15.8290908 21.3181821,15.8290908 C19.7909093,15.8290908 19.4727274,15.510909 19.0400001,14.2636362 L17.9072728,15.3327272 C18.569091,16.72 19.409091,17.1781818 21.3181821,17.1781818 Z M29.1454548,17.1781818 C30.9781822,17.1781818 31.7672732,16.4909091 32.314546,14.5309089 L30.9272731,14.0599998 C30.5072731,15.4981817 30.2018185,15.8290908 29.1454548,15.8290908 C27.618182,15.8290908 27.1345456,14.8999999 27.1345456,11.8963633 C27.1345456,8.90545397 27.618182,7.98909027 29.1454548,7.98909027 C30.2018185,7.98909027 30.5072731,8.33272666 30.9272731,9.79636313 L32.314546,9.31272673 C31.7672732,7.33999932 30.965455,6.63999927 29.1454548,6.63999927 C26.5363637,6.63999927 25.6709091,8.10363573 25.6709091,11.8963633 C25.6709091,15.7018181 26.5363637,17.1781818 29.1454548,17.1781818 Z M40.4472733,17 L37.5709094,12.8890906 C39.2509095,12.7236361 39.9000005,11.9345451 39.9000005,9.87272677 C39.9000005,7.67090843 39.0472732,6.8181811 36.7436366,6.8181811 L33.6127273,6.8181811 L33.6127273,17 L35.0763638,17 L35.0763638,12.9272724 L35.8909093,12.9272724 L38.7545459,17 L40.4472733,17 Z M36.7436366,8.1672721 C38.0927276,8.1672721 38.436364,8.53636304 38.436364,9.87272677 C38.436364,11.3745451 38.0927276,11.5781814 36.7436366,11.5781814 L35.0763638,11.5781814 L35.0763638,8.1672721 L36.7436366,8.1672721 Z M47.5236369,6.8181811 L41.3000001,6.8181811 L41.3000001,17 L47.5236369,17 L47.5236369,15.650909 L42.7636365,15.650909 L42.7636365,12.2909088 L45.8181822,12.2909088 L45.8181822,10.9418178 L42.7636365,10.9418178 L42.7636365,8.1672721 L47.5236369,8.1672721 L47.5236369,6.8181811 Z M55.1600005,6.8181811 L48.9363637,6.8181811 L48.9363637,17 L55.1600005,17 L55.1600005,15.650909 L50.4000002,15.650909 L50.4000002,12.2909088 L53.4545458,12.2909088 L53.4545458,10.9418178 L50.4000002,10.9418178 L50.4000002,8.1672721 L55.1600005,8.1672721 L55.1600005,6.8181811 Z M61.1800004,13.8436361 L57.9218183,6.8181811 L56.3563637,6.8181811 L56.3563637,17 L57.8327274,17 L57.8327274,9.9999995 L61.0781822,17 L62.6436369,17 L62.6436369,6.8181811 L61.1800004,6.8181811 L61.1800004,13.8436361 Z M67.1363639,17.1781818 C69.5545459,17.1781818 70.4072732,16.3127272 70.4072732,14.0599998 C70.4072732,12.303636 69.5927277,11.6545451 67.2509094,10.9290905 C65.8636365,10.4963632 65.5200002,10.3436359 65.5200002,9.46545401 C65.5200002,8.30727211 65.8127274,7.98909027 67.1363639,7.98909027 C68.5490913,7.98909027 68.8418186,8.26909029 69.2872731,9.40181764 L70.3309096,8.26909029 C69.6818186,7.04727202 68.8800004,6.63999927 67.1363639,6.63999927 C64.8709092,6.63999927 64.0563637,7.42909023 64.0563637,9.46545401 C64.0563637,11.0054541 64.8072728,11.5781814 67.0090912,12.303636 C68.536364,12.812727 68.9436368,13.0290906 68.9436368,14.0599998 C68.9436368,15.4345453 68.5745458,15.8290908 67.1363639,15.8290908 C65.6090911,15.8290908 65.2909092,15.510909 64.8581819,14.2636362 L63.7254546,15.3327272 C64.3872728,16.72 65.2272729,17.1781818 67.1363639,17.1781818 Z M76.4781822,10.9418178 L73.0800002,10.9418178 L73.0800002,6.8181811 L71.6163637,6.8181811 L71.6163637,17 L73.0800002,17 L73.0800002,12.2909088 L76.4781822,12.2909088 L76.4781822,17 L77.9418187,17 L77.9418187,6.8181811 L76.4781822,6.8181811 L76.4781822,10.9418178 Z M82.4090912,17.1781818 C84.9418186,17.1781818 85.794546,15.8290908 85.794546,12.4181815 L85.794546,11.3999996 C85.794546,7.98909027 84.9418186,6.63999927 82.4090912,6.63999927 C79.8763637,6.63999927 79.0363637,7.98909027 79.0363637,11.3999996 L79.0363637,12.4181815 C79.0363637,15.8290908 79.8763637,17.1781818 82.4090912,17.1781818 Z M82.4090912,15.8290908 C80.9454547,15.8290908 80.4872729,15.0272726 80.5000001,12.4181815 L80.5000001,11.3999996 C80.5000001,8.79090851 80.9200002,7.98909027 82.4090912,7.98909027 C83.8854549,7.98909027 84.3181822,8.79090851 84.3181822,11.3999996 L84.3181822,12.4181815 C84.3181822,15.0272726 83.8854549,15.8290908 82.4090912,15.8290908 Z M93.8763642,6.8181811 L86.2145455,6.8181811 L86.2145455,8.1672721 L89.3200002,8.1672721 L89.3200002,17 L90.7836367,17 L90.7836367,8.1672721 L93.8763642,8.1672721 L93.8763642,6.8181811 Z M97.6818185,17.1781818 C100.1,17.1781818 100.952728,16.3127272 100.952728,14.0599998 C100.952728,12.303636 100.138182,11.6545451 97.7963639,10.9290905 C96.4090911,10.4963632 96.0654547,10.3436359 96.0654547,9.46545401 C96.0654547,8.30727211 96.358182,7.98909027 97.6818185,7.98909027 C99.0945458,7.98909027 99.3872731,8.26909029 99.8327277,9.40181764 L100.876364,8.26909029 C100.227273,7.04727202 99.4254549,6.63999927 97.6818185,6.63999927 C95.4163637,6.63999927 94.6018182,7.42909023 94.6018182,9.46545401 C94.6018182,11.0054541 95.3527274,11.5781814 97.5545457,12.303636 C99.0818186,12.812727 99.4890913,13.0290906 99.4890913,14.0599998 C99.4890913,15.4345453 99.1200004,15.8290908 97.6818185,15.8290908 C96.1545456,15.8290908 95.8363638,15.510909 95.4036365,14.2636362 L94.2709091,15.3327272 C94.9327273,16.72 95.7727274,17.1781818 97.6818185,17.1781818 Z" id="Combined-Shape" fill="color(display-p3 0.776 0.647 0.220)" fill-rule="nonzero"></path>
        </g>
    </g>
</svg>
